<svg width="55" height="53" viewBox="0 0 55 53" fill="none" xmlns="http://www.w3.org/2000/svg">
<path d="M53.5697 23.8038C54.6858 22.7168 55.0799 21.1215 54.5983 19.6405C54.1166 18.1595 52.8593 17.1004 51.3168 16.8766L37.8293 14.9185C37.5646 14.8802 37.3357 14.7141 37.2172 14.4742L31.1855 2.26392C30.4958 0.867464 29.099 0 27.5403 0C25.9816 0 24.5848 0.867464 23.8951 2.26392L17.8633 14.4743C17.7447 14.7141 17.516 14.8802 17.2511 14.9187L3.76387 16.8766C2.22141 17.1004 0.964159 18.1595 0.482351 19.6405C0.000543505 21.1215 0.394706 22.7168 1.51098 23.8038L11.2705 33.3082C11.4621 33.4949 11.5496 33.7637 11.5043 34.0273L9.2004 47.4477C8.93698 48.9826 9.55652 50.5045 10.8175 51.4199C12.0785 52.3354 13.7192 52.4537 15.0986 51.7292L27.162 45.393C27.3989 45.2685 27.6817 45.2685 27.9188 45.393L39.9823 51.7292C40.5823 52.0444 41.2316 52.2001 41.8777 52.2C42.7169 52.2 43.5507 51.9373 44.2631 51.4197C45.524 50.5043 46.1437 48.9823 45.8802 47.4476L43.5762 34.0272C43.5311 33.7636 43.6185 33.4948 43.81 33.3081L53.5697 23.8038ZM40.3713 34.5766L42.6752 47.9973C42.7523 48.4464 42.4748 48.7025 42.3518 48.7916C42.2288 48.8806 41.8992 49.0655 41.4956 48.8533L29.4321 42.517C28.8399 42.2061 28.1903 42.0505 27.5405 42.0505C26.8908 42.0505 26.241 42.2061 25.6489 42.5169L13.5855 48.8531C13.1818 49.0651 12.8522 48.8805 12.7293 48.7914C12.6064 48.7022 12.3288 48.4462 12.4059 47.997L14.7099 34.5766C14.9361 33.2589 14.4992 31.9151 13.5408 30.9819L3.78121 21.4774C3.45458 21.1592 3.5285 20.7891 3.57558 20.6447C3.62241 20.5003 3.78048 20.1574 4.23183 20.0919L17.719 18.1339C19.0431 17.9417 20.1875 17.1112 20.7798 15.9122L26.8115 3.70176C27.0134 3.29316 27.3886 3.24902 27.5406 3.24902C27.6925 3.24902 28.0676 3.29304 28.2696 3.70176V3.70188L34.3014 15.9123C34.8936 17.1114 36.0378 17.9418 37.362 18.134L50.8493 20.092C51.3007 20.1575 51.4586 20.5004 51.5056 20.6449C51.5525 20.7893 51.6266 21.1595 51.2998 21.4776L41.5403 30.982C40.582 31.9151 40.1451 33.2589 40.3713 34.5766Z" fill="#503E72" fill-opacity="0.5"/>
</svg>
